HIERARCHY
ROOT Hips
{
     OFFSET 1.88212 96.90440 -13.34250
     CHANNELS 6 Xposition Yposition Zposition Zrotation Xrotation Yrotation
     JOINT Spine
     {
          OFFSET 0.00000 11.89050 0.00000
          CHANNELS 3 Zrotation Xrotation Yrotation
          JOINT Spine1
          {
               OFFSET -0.00000 25.65740 0.12766
               CHANNELS 3 Zrotation Xrotation Yrotation
               JOINT HEad
               {
                    OFFSET 0.00000 8.73416 0.01134
                    CHANNELS 3 Zrotation Xrotation Yrotation
                    End Site
                    {
                         OFFSET -0.29000 12.77420 2.51395
                    }
               }
               JOINT LeftShoulder1
               {
                    OFFSET 8.99000 -0.36225 -0.22000
                    CHANNELS 3 Zrotation Xrotation Yrotation
                    JOINT LeftArm
                    {
                         OFFSET 10.28270 -0.00338 0.32212
                         CHANNELS 3 Zrotation Xrotation Yrotation
                         JOINT LeftForeArm
                         {
                              OFFSET 32.76690 0.09914 -1.42434
                              CHANNELS 3 Zrotation Xrotation Yrotation
                              JOINT LeftHand
                              {
                                   OFFSET 27.56430 0.08536 1.02216
                                   CHANNELS 3 Zrotation Xrotation Yrotation
                                   End Site
                                   {
                                        OFFSET 16.74430 -0.60000 1.50291
                                   }
                              }
                         }
                    }
               }
               JOINT RightShoulder
               {
                    OFFSET -8.99000 -0.36225 -0.22000
                    CHANNELS 3 Zrotation Xrotation Yrotation
                    JOINT RightArm
                    {
                         OFFSET -10.28270 -0.00338 0.32212
                         CHANNELS 3 Zrotation Xrotation Yrotation
                         JOINT RightForeArm
                         {
                              OFFSET -32.89710 0.09914 -1.42434
                              CHANNELS 3 Zrotation Xrotation Yrotation
                              JOINT RightHand
                              {
                                   OFFSET -27.49210 0.08536 1.02216
                                   CHANNELS 3 Zrotation Xrotation Yrotation
                                   End Site
                                   {
                                        OFFSET -16.63120 -0.60000 1.50291
                                   }
                              }
                         }
                    }
               }
          }
     }
     JOINT LeftUpLeg
     {
          OFFSET 8.94580 -8.66707 0.10165
          CHANNELS 3 Zrotation Xrotation Yrotation
          JOINT LeftLeg
          {
               OFFSET 0.00000 -44.42270 1.37270
               CHANNELS 3 Zrotation Xrotation Yrotation
               JOINT LeftFoot
               {
                    OFFSET -0.25355 -42.09240 -1.46059
                    CHANNELS 3 Zrotation Xrotation Yrotation
                    JOINT LeftToes
                    {
                         OFFSET -0.04000 -4.41509 8.49910
                         CHANNELS 3 Zrotation Xrotation Yrotation
                         End Site
                         {
                              OFFSET 0.08000 -0.04745 9.77979
                         }
                    }
               }
          }
     }
     JOINT RightUpLeg
     {
          OFFSET -8.94580 -8.66707 0.10165
          CHANNELS 3 Zrotation Xrotation Yrotation
          JOINT RightLeg
          {
               OFFSET 0.00000 -44.42270 1.37270
               CHANNELS 3 Zrotation Xrotation Yrotation
               JOINT RightFoot
               {
                    OFFSET 0.25355 -42.09240 -1.46059
                    CHANNELS 3 Zrotation Xrotation Yrotation
                    JOINT RightToes
                    {
                         OFFSET 0.04000 -4.41509 8.49910
                         CHANNELS 3 Zrotation Xrotation Yrotation
                         End Site
                         {
                              OFFSET -0.08000 -0.13745 9.77979
                         }
                    }
               }
          }
     }
}
MOTION
Frames: 10
Frame Time: 0.01667
-233.47478 87.88100 39.37481 -10.19664 7.05157 -109.62146 4.93267 18.74402 -10.05692 -0.02516 0.01943 -0.01907 -5.68485 -1.58872 19.47382 -11.25490 13.83487 3.82626 -129.30557 -58.67927 -105.93327 -8.65817 58.79561 -101.77586 21.33552 -3.76521 -8.81699 13.00340 15.17001 -1.77224 81.02810 4.32131 75.67113 5.40716 30.25164 105.17735 18.34083 7.06375 2.67137 28.09608 -5.18511 -26.78011 -36.27883 -6.94062 79.96558 17.24146 -0.00761 0.00006 -6.29656 -22.37363 -59.95699 -14.74690 0.26389 -6.97552 29.04049 23.70221 -21.02857 -30.00469 -0.00080 0.00340 7.24610 -44.19878 28.21238 
-233.82953 87.84828 39.56881 -10.03827 7.23111 -110.00192 5.69264 18.50559 -7.14879 -0.01824 0.01382 -0.02401 -5.26768 -2.41928 17.52462 -11.10258 14.15964 1.17809 -127.05894 -58.25493 -104.37695 -9.96785 58.13234 -99.66419 21.09358 -2.02532 -9.33136 12.92441 14.48156 -4.05157 81.05423 3.94281 75.01942 5.51391 30.33460 105.54941 18.20008 7.34260 2.86781 28.75228 -4.92416 -27.33250 -36.82162 -7.84525 78.62430 17.11102 -0.00598 -0.00130 -5.46866 -22.42380 -58.13691 -14.58257 -0.75283 -8.28024 28.34913 26.10899 -19.99944 -30.00588 -0.00234 0.00269 7.24656 -45.57037 27.46991 
-234.14316 87.78349 39.76451 -9.96625 7.34483 -110.23252 6.13948 18.48841 -4.65592 -0.01545 0.01177 -0.02377 -4.76019 -3.15375 15.68639 -10.81468 14.26937 -1.04018 -124.28196 -57.59319 -102.37298 -11.16787 57.16474 -97.62739 21.22520 -1.71265 -9.61389 13.01216 13.75890 -5.96182 81.10381 3.40920 74.31164 5.73798 30.54046 106.07630 18.25525 7.97771 3.18208 29.08032 -4.80256 -26.65945 -37.40649 -7.69691 76.54371 16.96746 -0.00498 -0.00148 -4.65828 -22.45461 -56.56702 -14.52724 -1.91002 -8.24069 28.37793 28.01909 -20.55072 -30.00678 -0.00366 0.00203 7.11838 -46.95288 26.64305 
-234.41370 87.67774 39.96727 -9.97119 7.38327 -110.32825 6.28953 18.62772 -2.55266 -0.01321 0.01011 -0.02281 -4.17312 -3.78213 13.96351 -10.43629 14.19548 -2.85460 -121.13594 -56.70770 -100.06666 -12.12429 55.91148 -95.80484 21.02987 -0.26079 -9.98301 13.23569 13.01530 -7.50309 81.14861 2.73864 73.58456 6.05066 30.80351 106.69338 18.16792 8.27083 3.27552 29.15917 -4.81608 -24.87249 -37.96960 -6.57794 73.85987 16.79605 -0.00465 -0.00149 -3.92689 -22.45752 -55.26774 -14.56047 -3.06503 -6.99462 29.09281 29.36718 -22.48975 -30.00712 -0.00480 0.00142 6.93878 -48.33041 25.77428 
-234.64096 87.53230 40.17320 -10.04288 7.34434 -110.30123 6.16254 18.86560 -0.80092 -0.01125 0.00913 -0.02151 -3.50875 -4.29131 12.35010 -10.25153 14.00988 -4.00529 -111.43103 -53.33721 -93.94719 -11.25778 50.93253 -93.23691 21.04913 0.29669 -10.15212 13.56096 12.27551 -8.68139 81.19830 1.94464 72.87630 6.42494 31.08319 107.33421 18.19604 8.74259 3.43608 29.05371 -4.95688 -22.07744 -38.44141 -4.58473 70.68307 16.60080 -0.00445 -0.00141 -3.30134 -22.46742 -54.25693 -14.65413 -4.11342 -4.66558 30.41119 30.05648 -25.61358 -30.00712 -0.00565 0.00094 6.76130 -49.69051 24.90500 
-234.82800 87.35677 40.37119 -10.16995 7.23343 -110.16180 5.79534 19.17154 0.62300 -0.00946 0.00840 -0.02005 -2.77903 -4.68896 10.85292 -9.94293 13.71547 -4.92161 -105.09720 -50.72990 -89.98958 -10.76090 47.20014 -91.78193 20.84134 1.44621 -10.34004 13.96073 11.55576 -9.51886 81.25806 1.06447 72.21541 6.83785 31.35141 107.94567 18.13650 8.98413 3.46722 28.80926 -5.21187 -18.37404 -38.73772 -1.81489 67.09289 16.39322 -0.00418 -0.00127 -2.79880 -22.51883 -53.54222 -14.87917 -4.99698 -2.48030 31.89290 30.64256 -28.72491 -29.99055 -0.00294 0.00072 6.48460 -51.08861 24.07170 
-234.98206 87.16660 40.54552 -10.34002 7.06322 -109.92138 5.23283 19.52533 1.74250 -0.00784 0.00773 -0.01859 -2.00206 -4.98603 9.48103 -9.50057 13.33160 -5.68722 -100.80493 -48.75373 -87.24934 -10.54605 44.32389 -90.90308 20.68330 2.02685 -10.36483 14.41341 10.87142 -10.05334 81.33047 0.15162 71.61331 7.26056 31.59686 108.50713 18.16213 9.29579 3.54239 28.58509 -5.52394 -14.97143 -38.90387 0.85520 63.96770 16.19981 -0.00375 -0.00118 -2.42665 -22.63152 -53.11155 -15.23792 -5.74060 -0.44899 33.50460 31.12076 -31.79452 -29.98642 -0.00282 0.00015 6.17531 -52.50485 23.31925 
-235.11552 86.97688 40.68500 -10.54235 6.84798 -109.59174 4.51888 19.91341 2.58271 -0.00639 0.00709 -0.01714 -1.19800 -5.19202 8.24161 -8.97509 12.88424 -6.29049 -97.79593 -47.19651 -85.26604 -10.49603 42.06584 -90.32555 20.37762 2.90703 -10.44696 14.90453 10.23319 -10.32975 81.40887 -0.73630 71.07085 7.66561 31.80620 109.01289 18.15890 9.46082 3.54092 28.37145 -5.87848 -11.87731 -38.96690 3.39397 61.28315 16.03919 -0.00326 -0.00111 -2.18622 -22.81521 -52.93379 -15.69174 -6.38119 1.42515 35.28495 31.41169 -34.86031 -30.17234 -0.00179 -0.00195 5.97351 -53.91633 22.70792 
-235.23972 86.79716 40.78508 -10.76854 6.59760 -109.18743 3.68932 20.32549 3.17325 -0.00507 0.00648 -0.01571 -0.38633 -5.31308 7.13830 -8.40388 12.39510 -6.71873 -95.64097 -45.91057 -83.79964 -10.53286 40.26994 -89.90561 20.13942 3.43284 -10.45395 15.43075 9.64412 -10.39625 81.47206 -1.54476 70.58136 8.02431 31.96550 109.47253 18.23328 9.66964 3.55941 28.15301 -6.26328 -9.09567 -38.95220 5.78263 59.01238 15.92192 -0.00288 -0.00099 -2.06937 -23.07823 -52.96721 -16.20878 -6.92577 3.14342 37.07265 31.58642 -37.83649 -30.01170 -0.00182 0.00026 5.46446 -55.28239 22.24556 
-235.36261 86.63020 40.84599 -11.01040 6.32215 -108.72545 2.77770 20.75325 3.54661 -0.00383 0.00595 -0.01428 0.41530 -5.35274 6.17107 -7.81020 11.88115 -6.97322 -94.08852 -44.81549 -82.70360 -10.61057 38.84755 -89.57965 19.85718 4.10427 -10.50719 15.98967 9.10331 -10.29574 81.49835 -2.23559 70.13940 8.31645 32.06260 109.89299 18.29789 9.80150 3.51959 27.92221 -6.66866 -6.62751 -38.88227 8.01080 57.12864 15.85000 -0.00264 -0.00081 -2.06047 -23.42476 -53.17397 -16.76599 -7.36928 4.70983 38.87293 31.61814 -40.70376 -29.99020 -0.00147 -0.00065 5.11420 -56.58566 21.91573 
